<svg xmlns="http://www.w3.org/2000/svg" xmlns:xlink="http://www.w3.org/1999/xlink" width="500" zoomAndPan="magnify" viewBox="0 0 375 374.999991" height="500" preserveAspectRatio="xMidYMid meet" version="1.0"><defs><filter x="0%" y="0%" width="100%" height="100%" id="id1"><feColorMatrix values="0 0 0 0 1 0 0 0 0 1 0 0 0 0 1 0 0 0 1 0" color-interpolation-filters="sRGB"/></filter><clipPath id="id2"><path d="M 47.507812 77.386719 L 310.007812 77.386719 L 310.007812 337 L 47.507812 337 Z M 47.507812 77.386719 " clip-rule="nonzero"/></clipPath><mask id="id3"><g filter="url(#id1)"><rect x="-37.5" width="450" fill="#000000" y="-37.499999" height="449.999989" fill-opacity="0.698"/></g></mask><clipPath id="id4"><path d="M 0.507812 1 L 263 1 L 263 259.71875 L 0.507812 259.71875 Z M 0.507812 1 " clip-rule="nonzero"/></clipPath><clipPath id="id5"><rect x="0" width="264" y="0" height="260"/></clipPath><clipPath id="id6"><path d="M 197 125 L 266 125 L 266 194 L 197 194 Z M 197 125 " clip-rule="nonzero"/></clipPath><clipPath id="id7"><path d="M 230.050781 57.519531 L 327.632812 155.097656 L 145.199219 337.53125 L 47.621094 239.953125 Z M 230.050781 57.519531 " clip-rule="nonzero"/></clipPath><clipPath id="id8"><path d="M 230.050781 57.519531 L 327.632812 155.097656 L 145.199219 337.53125 L 47.621094 239.953125 Z M 230.050781 57.519531 " clip-rule="nonzero"/></clipPath><clipPath id="id9"><path d="M 84 231 L 153 231 L 153 298 L 84 298 Z M 84 231 " clip-rule="nonzero"/></clipPath><clipPath id="id10"><path d="M 230.050781 57.519531 L 327.632812 155.097656 L 145.199219 337.53125 L 47.621094 239.953125 Z M 230.050781 57.519531 " clip-rule="nonzero"/></clipPath><clipPath id="id11"><path d="M 230.050781 57.519531 L 327.632812 155.097656 L 145.199219 337.53125 L 47.621094 239.953125 Z M 230.050781 57.519531 " clip-rule="nonzero"/></clipPath><clipPath id="id12"><path d="M 118.734375 217.542969 L 167.304688 266.113281 L 120.351562 313.066406 L 71.785156 264.496094 Z M 118.734375 217.542969 " clip-rule="nonzero"/></clipPath><clipPath id="id13"><path d="M 118.734375 217.542969 L 167.304688 266.113281 L 120.554688 312.863281 L 71.984375 264.292969 Z M 118.734375 217.542969 " clip-rule="nonzero"/></clipPath><clipPath id="id14"><path d="M 114 155 L 183 155 L 183 224 L 114 224 Z M 114 155 " clip-rule="nonzero"/></clipPath><clipPath id="id15"><path d="M 230.050781 57.519531 L 327.632812 155.097656 L 145.199219 337.53125 L 47.621094 239.953125 Z M 230.050781 57.519531 " clip-rule="nonzero"/></clipPath><clipPath id="id16"><path d="M 230.050781 57.519531 L 327.632812 155.097656 L 145.199219 337.53125 L 47.621094 239.953125 Z M 230.050781 57.519531 " clip-rule="nonzero"/></clipPath><clipPath id="id17"><path d="M 205 82 L 275 82 L 275 150 L 205 150 Z M 205 82 " clip-rule="nonzero"/></clipPath><clipPath id="id18"><path d="M 230.050781 57.519531 L 327.632812 155.097656 L 145.199219 337.53125 L 47.621094 239.953125 Z M 230.050781 57.519531 " clip-rule="nonzero"/></clipPath><clipPath id="id19"><path d="M 230.050781 57.519531 L 327.632812 155.097656 L 145.199219 337.53125 L 47.621094 239.953125 Z M 230.050781 57.519531 " clip-rule="nonzero"/></clipPath><clipPath id="id20"><path d="M 210 87 L 272 87 L 272 146 L 210 146 Z M 210 87 " clip-rule="nonzero"/></clipPath><clipPath id="id21"><path d="M 230.050781 57.519531 L 327.632812 155.097656 L 145.199219 337.53125 L 47.621094 239.953125 Z M 230.050781 57.519531 " clip-rule="nonzero"/></clipPath><clipPath id="id22"><path d="M 230.050781 57.519531 L 327.632812 155.097656 L 145.199219 337.53125 L 47.621094 239.953125 Z M 230.050781 57.519531 " clip-rule="nonzero"/></clipPath><clipPath id="id23"><path d="M 118 245 L 187 245 L 187 313 L 118 313 Z M 118 245 " clip-rule="nonzero"/></clipPath><clipPath id="id24"><path d="M 230.050781 57.519531 L 327.632812 155.097656 L 145.199219 337.53125 L 47.621094 239.953125 Z M 230.050781 57.519531 " clip-rule="nonzero"/></clipPath><clipPath id="id25"><path d="M 230.050781 57.519531 L 327.632812 155.097656 L 145.199219 337.53125 L 47.621094 239.953125 Z M 230.050781 57.519531 " clip-rule="nonzero"/></clipPath><clipPath id="id26"><path d="M 152.484375 230.84375 L 202.195312 280.554688 L 155.242188 327.503906 L 105.53125 277.796875 Z M 152.484375 230.84375 " clip-rule="nonzero"/></clipPath><clipPath id="id27"><path d="M 152.484375 230.84375 L 202.09375 280.453125 L 155.140625 327.40625 L 105.53125 277.796875 Z M 152.484375 230.84375 " clip-rule="nonzero"/></clipPath><clipPath id="id28"><path d="M 122 250 L 184 250 L 184 309 L 122 309 Z M 122 250 " clip-rule="nonzero"/></clipPath><clipPath id="id29"><path d="M 230.050781 57.519531 L 327.632812 155.097656 L 145.199219 337.53125 L 47.621094 239.953125 Z M 230.050781 57.519531 " clip-rule="nonzero"/></clipPath><clipPath id="id30"><path d="M 230.050781 57.519531 L 327.632812 155.097656 L 145.199219 337.53125 L 47.621094 239.953125 Z M 230.050781 57.519531 " clip-rule="nonzero"/></clipPath><clipPath id="id31"><path d="M 99.519531 78 L 257.769531 78 L 257.769531 317.769531 L 99.519531 317.769531 Z M 99.519531 78 " clip-rule="nonzero"/></clipPath><clipPath id="id32"><path d="M 99.519531 78 L 257.769531 78 L 257.769531 317.769531 L 99.519531 317.769531 Z M 99.519531 78 " clip-rule="nonzero"/></clipPath></defs><g clip-path="url(#id2)"><g mask="url(#id3)"><g transform="matrix(1, 0, 0, 1, 47, 77)"><g clip-path="url(#id5)"><g clip-path="url(#id4)"><path fill="#3aafaf" d="M 238.914062 168.851562 C 236.570312 173.875 234.113281 179.011719 231.882812 183.808594 C 229.316406 188.945312 225.75 192.960938 222.066406 196.535156 C 218.273438 200.105469 214.59375 203.566406 210.910156 207.695312 C 206.449219 212.941406 200.757812 217.074219 194.734375 220.421875 C 188.710938 223.882812 182.464844 226.785156 176.105469 230.019531 C 164.390625 235.9375 151.335938 240.066406 137.726562 241.515625 C 124.117188 242.855469 110.0625 241.742188 97.121094 237.050781 C 91.09375 234.933594 85.292969 232.363281 79.714844 229.460938 C 74.25 226.449219 69.007812 223.210938 64.097656 219.527344 C 59.1875 215.957031 54.617188 211.828125 50.375 207.585938 C 46.136719 203.34375 42.230469 198.765625 38.886719 193.96875 C 35.425781 189.167969 32.304688 184.144531 29.738281 178.785156 C 27.171875 173.539062 24.941406 168.070312 23.15625 162.492188 C 21.480469 156.910156 20.253906 151.105469 19.472656 145.414062 C 18.691406 139.609375 18.582031 133.691406 18.691406 127.886719 C 19.25 114.269531 22.152344 100.09375 27.507812 86.8125 C 32.75 73.640625 40.449219 61.363281 49.371094 50.871094 C 52.609375 47.074219 57.179688 42.609375 62.535156 38.257812 C 67.890625 33.902344 74.25 29.886719 80.832031 26.425781 C 93.996094 19.394531 107.941406 15.488281 116.417969 12.695312 C 104.816406 14.816406 93.328125 18.390625 82.28125 23.300781 C 76.816406 25.757812 71.574219 28.65625 66.441406 31.894531 C 61.421875 35.132812 56.511719 38.59375 52.160156 42.5 C 70.234375 24.082031 95.445312 11.914062 121.773438 9.460938 C 134.9375 8.121094 148.324219 9.011719 161.265625 12.027344 C 174.207031 14.929688 186.480469 20.175781 197.746094 26.984375 C 176.886719 13.8125 152.453125 7.339844 128.246094 8.121094 C 104.035156 8.789062 80.273438 16.601562 60.527344 30.554688 C 40.78125 44.507812 25.050781 64.152344 15.792969 86.8125 C 6.535156 109.472656 3.746094 135.03125 7.871094 159.8125 C 4.300781 145.636719 3.296875 130.457031 4.972656 115.273438 C 6.535156 100.09375 11.105469 85.027344 18.359375 71.074219 C 25.5 57.234375 35.425781 44.621094 47.253906 34.238281 C 59.078125 23.859375 72.800781 15.710938 87.527344 10.464844 C 102.25 5.105469 117.757812 2.652344 133.152344 2.984375 C 148.546875 3.320312 163.722656 6.335938 177.664062 11.804688 C 191.609375 17.273438 204.441406 25.085938 215.597656 34.460938 C 226.753906 43.839844 236.347656 54.777344 243.933594 66.71875 C 248.617188 73.863281 253.191406 82.457031 256.425781 89.15625 C 250.847656 75.875 243.152344 63.148438 233.890625 51.761719 C 224.519531 40.378906 213.253906 30.332031 200.648438 22.183594 C 187.816406 14.257812 173.648438 8.230469 158.589844 4.769531 C 143.640625 1.3125 127.910156 0.53125 112.402344 2.425781 C 96.898438 4.4375 81.722656 9.347656 67.78125 16.828125 C 53.945312 24.304688 41.339844 34.574219 31.078125 46.628906 C 21.035156 58.683594 13.003906 72.636719 7.871094 87.480469 C 5.304688 94.847656 3.410156 102.4375 2.183594 110.140625 C 0.957031 117.730469 0.507812 125.433594 0.730469 133.023438 C 0.957031 146.976562 3.746094 161.039062 8.542969 174.320312 C 13.5625 187.605469 20.589844 200.328125 29.847656 211.492188 C 48.035156 234.039062 74.585938 250.335938 103.703125 256.25 C 119.433594 259.824219 135.941406 260.492188 152.007812 258.261719 C 168.519531 255.917969 184.695312 250.335938 199.308594 241.964844 C 213.921875 233.59375 226.753906 222.429688 237.015625 209.257812 C 241.589844 203.453125 246.609375 196.089844 250.738281 187.828125 C 254.976562 179.566406 258.324219 170.414062 260.332031 161.597656 C 262.339844 152.78125 263.007812 144.296875 262.453125 137.375 C 262.339844 135.703125 262.117188 134.027344 261.894531 132.578125 C 261.671875 131.125 261.445312 129.675781 261 128.445312 C 260.21875 125.992188 259.328125 123.980469 258.324219 122.753906 C 258.210938 124.984375 258.210938 127.21875 258.101562 129.5625 C 257.988281 131.792969 257.878906 134.140625 257.765625 136.484375 C 257.542969 138.828125 257.320312 141.058594 256.984375 143.292969 C 256.539062 145.523438 256.203125 147.644531 255.644531 149.765625 C 255.644531 148.089844 255.535156 146.304688 255.421875 144.519531 C 255.421875 143.625 255.3125 142.734375 255.3125 141.730469 C 255.3125 140.835938 255.199219 139.832031 255.199219 138.9375 C 255.089844 139.832031 254.976562 140.722656 254.863281 141.617188 C 254.753906 142.511719 254.53125 143.402344 254.308594 144.296875 C 253.972656 146.082031 253.75 147.867188 253.636719 149.542969 C 253.75 148.203125 253.75 146.753906 253.636719 145.523438 C 253.527344 144.296875 253.414062 143.292969 253.082031 142.734375 C 252.1875 146.863281 252.1875 153.003906 251.628906 156.351562 C 251.519531 157.355469 251.40625 160.144531 250.847656 163.046875 C 250.625 164.5 250.402344 165.949219 250.066406 167.179688 C 249.734375 168.40625 249.398438 169.410156 249.0625 169.96875 C 250.179688 163.046875 251.183594 154.453125 250.292969 148.761719 C 249.734375 150.992188 249.398438 153.226562 248.507812 155.234375 C 248.507812 154.566406 248.617188 153.671875 248.617188 152.78125 C 248.730469 151.886719 248.730469 150.882812 248.839844 149.988281 C 248.953125 148.089844 249.0625 146.417969 248.617188 145.636719 C 247.613281 151.105469 246.945312 156.015625 245.046875 161.484375 C 244.601562 162.601562 244.265625 163.71875 243.933594 164.722656 C 243.484375 165.726562 243.152344 166.84375 242.707031 167.847656 C 241.925781 169.96875 241.03125 171.867188 240.363281 174.097656 C 242.035156 168.964844 243.933594 162.042969 243.710938 158.136719 C 243.152344 159.253906 242.707031 160.371094 242.371094 161.597656 L 241.8125 163.382812 C 241.589844 163.941406 241.476562 164.609375 241.253906 165.167969 C 241.253906 164.835938 241.144531 164.609375 241.03125 164.5 C 240.695312 165.503906 239.917969 166.84375 239.582031 167.960938 C 239.359375 167.847656 239.023438 168.070312 238.914062 167.738281 C 239.023438 167.847656 239.246094 167.960938 239.359375 167.960938 " fill-opacity="1" fill-rule="nonzero"/></g><path fill="#3aafaf" d="M 256.875 167.066406 C 256.425781 168.519531 255.871094 170.082031 255.199219 171.753906 C 254.53125 173.429688 253.972656 175.101562 253.191406 176.777344 C 252.410156 178.453125 251.742188 180.125 250.847656 181.578125 C 250.066406 183.027344 249.289062 184.480469 248.507812 185.597656 " fill-opacity="1" fill-rule="nonzero"/></g></g></g></g><g clip-path="url(#id6)"><g clip-path="url(#id7)"><g clip-path="url(#id8)"><path fill="#545454" d="M 232.882812 126.851562 C 222.734375 121.238281 206.984375 133.835938 202.28125 142.742188 C 193.566406 156.710938 198.410156 172.890625 207.828125 183.441406 C 224.035156 201.917969 264.183594 193.304688 265.300781 163.804688 C 266.367188 150.128906 252.425781 129.382812 237.738281 128.304688 " fill-opacity="1" fill-rule="nonzero"/></g></g></g><g clip-path="url(#id9)"><g clip-path="url(#id10)"><g clip-path="url(#id11)"><g clip-path="url(#id12)"><g clip-path="url(#id13)"><path fill="#03989e" d="M 132.078125 295.28125 C 143.652344 295.863281 152.246094 277.613281 152.546875 267.535156 C 154.222656 251.148438 142.761719 238.730469 129.671875 233.386719 C 107.003906 223.902344 74.773438 249.304688 86.742188 276.316406 C 91.804688 289.082031 113.433594 301.601562 127.085938 296.109375 " fill-opacity="1" fill-rule="nonzero"/></g></g></g></g></g><g clip-path="url(#id14)"><g clip-path="url(#id15)"><g clip-path="url(#id16)"><path fill="#8c52ff" d="M 181.039062 190.839844 C 186.632812 180.703125 174.003906 164.921875 165.085938 160.203125 C 151.101562 151.460938 134.929688 156.265625 124.398438 165.664062 C 105.957031 181.832031 114.65625 221.996094 144.15625 223.179688 C 157.835938 224.273438 178.550781 210.375 179.597656 195.691406 " fill-opacity="1" fill-rule="nonzero"/></g></g></g><g clip-path="url(#id17)"><g clip-path="url(#id18)"><g clip-path="url(#id19)"><path fill="#8c52ff" d="M 247.554688 148.492188 C 235.347656 150.105469 222.683594 143.277344 214.679688 134.425781 C 207.585938 126.578125 205.269531 115.34375 208.917969 105.425781 C 212.179688 96.5625 219.753906 89.726562 228.261719 86 C 237.953125 81.753906 248.101562 82.597656 257.042969 88.171875 C 262.597656 91.632812 267.164062 96.613281 270.070312 102.472656 C 273.226562 108.855469 273.175781 115.726562 272.199219 122.601562 C 271.179688 129.78125 268.21875 136.753906 263.011719 141.871094 C 260.398438 144.445312 256.113281 147.425781 252.410156 147.886719 C 250.792969 148.085938 249.171875 148.289062 247.554688 148.492188 C 246.828125 148.582031 248.003906 149.636719 248.539062 149.570312 C 250.089844 149.375 251.640625 149.183594 253.191406 148.988281 C 256.351562 148.597656 259.71875 146.425781 262.207031 144.589844 C 267.453125 140.71875 270.875 134.566406 272.550781 128.359375 C 275.757812 116.511719 274.585938 104.761719 266.507812 95.152344 C 260.285156 87.753906 250.835938 82.339844 241.074219 82.105469 C 232.15625 81.894531 223.355469 85.765625 216.738281 91.5625 C 206.0625 100.914062 202.570312 115.703125 209.210938 128.496094 C 212.738281 135.285156 219.175781 140.558594 225.703125 144.300781 C 232.546875 148.222656 240.636719 150.613281 248.539062 149.570312 C 249.269531 149.472656 248.089844 148.417969 247.554688 148.492188 " fill-opacity="1" fill-rule="nonzero"/></g></g></g><g clip-path="url(#id20)"><g clip-path="url(#id21)"><g clip-path="url(#id22)"><path fill="#8c52ff" d="M 226.273438 90.84375 C 237.429688 85.632812 252.714844 88.996094 261.863281 96.875 C 269.773438 103.691406 271.730469 114.839844 268.320312 124.359375 C 265.226562 132.996094 258.03125 140.296875 249.390625 143.386719 C 237.183594 147.75 222.132812 141.152344 215.851562 130.15625 C 211.941406 123.308594 211.09375 113.617188 212.90625 106.035156 C 213.945312 101.683594 216.355469 97.808594 219.605469 94.773438 C 221.605469 92.90625 223.832031 91.96875 226.273438 90.84375 C 226.816406 90.59375 225.570312 89.625 225.042969 89.867188 C 220.773438 91.832031 217.441406 94.078125 214.6875 98.039062 C 211.421875 102.746094 210.410156 108.695312 210.605469 114.320312 C 210.800781 119.976562 212.164062 125.925781 214.972656 130.847656 C 217.96875 136.089844 222.9375 139.910156 228.292969 142.496094 C 237.214844 146.804688 247.160156 146.972656 255.734375 141.964844 C 263.25 137.574219 268.8125 129.886719 270.820312 121.449219 C 273.273438 111.117188 268.71875 100.488281 260.160156 94.410156 C 250.546875 87.585938 235.949219 84.773438 225.042969 89.867188 C 224.496094 90.121094 225.742188 91.089844 226.273438 90.84375 " fill-opacity="1" fill-rule="nonzero"/></g></g></g><g clip-path="url(#id23)"><g clip-path="url(#id24)"><g clip-path="url(#id25)"><g clip-path="url(#id26)"><g clip-path="url(#id27)"><path fill="#8c52ff" d="M 159.945312 311.496094 C 147.734375 313.113281 135.070312 306.285156 127.0625 297.429688 C 119.96875 289.585938 117.65625 278.351562 121.304688 268.433594 C 124.5625 259.570312 132.140625 252.734375 140.648438 249.003906 C 150.339844 244.757812 160.488281 245.605469 169.425781 251.175781 C 174.984375 254.636719 179.550781 259.617188 182.453125 265.480469 C 185.613281 271.863281 185.5625 278.734375 184.585938 285.609375 C 183.566406 292.789062 180.605469 299.757812 175.398438 304.878906 C 172.785156 307.449219 168.5 310.433594 164.792969 310.894531 C 163.175781 311.09375 161.558594 311.296875 159.945312 311.496094 C 159.214844 311.585938 160.390625 312.640625 160.925781 312.574219 C 162.476562 312.382812 164.027344 312.191406 165.578125 311.996094 C 168.734375 311.605469 172.101562 309.429688 174.59375 307.597656 C 179.839844 303.726562 183.257812 297.574219 184.9375 291.367188 C 188.144531 279.515625 186.972656 267.769531 178.894531 258.160156 C 172.671875 250.761719 163.222656 245.347656 153.460938 245.113281 C 144.542969 244.902344 135.742188 248.773438 129.125 254.570312 C 118.449219 263.917969 114.957031 278.710938 121.59375 291.5 C 125.121094 298.292969 131.558594 303.566406 138.089844 307.308594 C 144.929688 311.230469 153.019531 313.621094 160.925781 312.574219 C 161.65625 312.476562 160.476562 311.425781 159.945312 311.496094 " fill-opacity="1" fill-rule="nonzero"/></g></g></g></g></g><g clip-path="url(#id28)"><g clip-path="url(#id29)"><g clip-path="url(#id30)"><path fill="#8c52ff" d="M 138.65625 253.851562 C 149.816406 248.640625 165.101562 252.003906 174.25 259.882812 C 182.160156 266.695312 184.117188 277.847656 180.707031 287.367188 C 177.613281 296 170.417969 303.304688 161.777344 306.390625 C 149.566406 310.757812 134.519531 304.160156 128.234375 293.160156 C 124.328125 286.316406 123.476562 276.621094 125.289062 269.042969 C 126.332031 264.691406 128.742188 260.816406 131.992188 257.78125 C 133.992188 255.910156 136.21875 254.972656 138.65625 253.851562 C 139.203125 253.597656 137.957031 252.628906 137.429688 252.871094 C 133.160156 254.835938 129.828125 257.082031 127.074219 261.046875 C 123.804688 265.753906 122.796875 271.703125 122.992188 277.328125 C 123.183594 282.984375 124.546875 288.929688 127.359375 293.855469 C 130.351562 299.097656 135.324219 302.917969 140.679688 305.503906 C 149.601562 309.808594 159.546875 309.976562 168.117188 304.96875 C 175.632812 300.582031 181.199219 292.890625 183.203125 284.453125 C 185.660156 274.121094 181.105469 263.496094 172.542969 257.414062 C 162.933594 250.59375 148.335938 247.777344 137.429688 252.871094 C 136.882812 253.128906 138.128906 254.097656 138.65625 253.851562 " fill-opacity="1" fill-rule="nonzero"/></g></g></g><g clip-path="url(#id31)"><path fill="#0f0e0c" d="M 256.132812 190.132812 C 255.539062 189.597656 254.839844 189.460938 254.285156 189.347656 L 254.140625 189.324219 C 250.054688 188.484375 246.441406 184.757812 244.964844 179.824219 C 244.839844 179.414062 244.730469 178.996094 244.640625 178.578125 C 246.410156 177.691406 248.097656 176.648438 249.695312 175.464844 C 252.597656 173.3125 255.949219 170.410156 256.816406 166.722656 C 257.75 162.757812 255.003906 161.265625 251.546875 160.738281 C 249.304688 160.390625 247.152344 159.710938 245.121094 158.757812 C 250.972656 147.96875 251.796875 133.800781 246.878906 121.25 C 241.710938 108.066406 230.667969 96.339844 215.773438 88.21875 C 205.957031 82.867188 190.746094 77.011719 173.976562 79.542969 C 160.585938 81.558594 148.519531 89.265625 142.097656 99.800781 C 135.910156 95.175781 126.1875 95.351562 119.25 100.417969 C 115.449219 103.195312 108.84375 109.941406 107.386719 123.898438 C 106.6875 130.546875 107.261719 137.277344 107.8125 143.792969 C 107.988281 145.875 108.171875 148.023438 108.308594 150.136719 C 108.792969 157.53125 108.863281 167.0625 105.136719 175.164062 C 104.105469 177.398438 100.976562 184.195312 105.527344 186.820312 C 106.261719 187.242188 107.0625 187.453125 107.921875 187.453125 C 109.75 187.453125 111.820312 186.503906 113.960938 184.652344 C 116.628906 182.335938 119.074219 179.753906 121.25 176.945312 C 121.09375 185.109375 121.046875 193.507812 124.28125 201.140625 C 125.800781 204.71875 128.054688 208.0625 129.863281 210.746094 C 133.582031 216.265625 137.347656 221.742188 141.0625 227.019531 C 142.394531 228.910156 143.898438 231.054688 146.09375 232.519531 C 147.265625 233.304688 148.65625 233.902344 150.3125 234.320312 C 150.417969 234.585938 150.691406 234.785156 151.152344 234.757812 C 151.476562 234.742188 151.800781 234.722656 152.128906 234.699219 C 152.195312 234.707031 152.25 234.714844 152.324219 234.726562 C 152.539062 234.757812 152.75 234.792969 152.953125 234.816406 C 152.964844 235.191406 152.960938 235.582031 152.953125 236 L 152.761719 243.992188 C 149.179688 249.058594 145.394531 254.144531 141.515625 259.125 C 138.761719 261.539062 135.484375 263.792969 131.535156 266.011719 C 128.257812 267.847656 124.792969 269.515625 121.445312 271.128906 C 117.445312 273.050781 113.316406 275.035156 109.414062 277.351562 C 106.601562 279.015625 103.472656 281.148438 101.59375 284.289062 C 100.378906 286.332031 99.710938 288.6875 99.550781 291.492188 C 99.550781 291.496094 99.550781 291.503906 99.550781 291.507812 C 99.546875 291.601562 99.550781 291.699219 99.578125 291.800781 C 99.578125 291.832031 99.585938 291.871094 99.601562 291.90625 C 99.609375 291.9375 99.621094 291.976562 99.636719 292.011719 C 99.648438 292.042969 99.667969 292.082031 99.6875 292.117188 C 99.71875 292.175781 99.757812 292.238281 99.804688 292.296875 C 99.847656 292.359375 99.902344 292.414062 99.964844 292.464844 C 110.199219 301.367188 120.9375 307.964844 132.023438 312.167969 C 133.15625 312.605469 134.296875 313.011719 135.441406 313.390625 C 137.832031 314.183594 140.234375 314.875 142.648438 315.445312 C 145.578125 316.140625 148.585938 316.679688 151.652344 317.050781 C 152.621094 317.175781 153.589844 317.28125 154.574219 317.367188 C 157.355469 317.621094 160.191406 317.746094 163.070312 317.746094 C 166.242188 317.746094 169.472656 317.59375 172.742188 317.285156 C 173.769531 317.191406 174.804688 317.082031 175.839844 316.953125 C 176.09375 316.921875 176.347656 316.890625 176.605469 316.855469 C 177.488281 316.746094 178.359375 316.621094 179.238281 316.488281 C 188.210938 315.121094 197.449219 312.648438 206.800781 309.082031 C 211.882812 307.140625 216.878906 304.9375 221.730469 302.574219 C 222.722656 302.09375 223.71875 301.597656 224.707031 301.101562 C 234.503906 296.171875 243.6875 290.695312 251.878906 285.617188 C 251.898438 285.613281 251.914062 285.601562 251.929688 285.589844 C 251.949219 285.574219 251.972656 285.5625 251.992188 285.546875 C 252.003906 285.542969 252.007812 285.539062 252.015625 285.527344 C 252.054688 285.503906 252.089844 285.472656 252.132812 285.4375 C 252.164062 285.410156 252.195312 285.375 252.21875 285.339844 C 252.277344 285.277344 252.320312 285.210938 252.355469 285.140625 C 252.375 285.113281 252.390625 285.078125 252.40625 285.050781 C 252.414062 285.027344 252.425781 285 252.433594 284.972656 C 252.480469 284.84375 252.503906 284.703125 252.503906 284.566406 C 252.503906 284.503906 252.5 284.445312 252.492188 284.382812 C 252.480469 284.328125 252.46875 284.269531 252.453125 284.210938 C 252.449219 284.199219 252.4375 284.183594 252.433594 284.167969 C 252.425781 284.136719 252.410156 284.097656 252.390625 284.0625 C 252.375 284.023438 252.355469 283.992188 252.332031 283.957031 C 252.332031 283.953125 252.328125 283.945312 252.328125 283.9375 C 252.320312 283.933594 252.3125 283.925781 252.308594 283.917969 C 252.300781 283.894531 252.285156 283.875 252.269531 283.855469 C 252.261719 283.84375 252.246094 283.824219 252.234375 283.808594 C 252.023438 283.527344 251.8125 283.25 251.582031 282.980469 C 250.175781 281.28125 248.460938 279.855469 246.585938 278.832031 C 245.707031 278.351562 244.792969 277.949219 243.902344 277.5625 C 242.085938 276.757812 240.367188 276 239.144531 274.699219 C 237.378906 272.8125 236.855469 270.054688 236.390625 266.90625 L 234.667969 255.335938 C 234.34375 253.0625 233.960938 250.480469 232.71875 248.195312 C 230.621094 244.34375 226.21875 241.742188 220.933594 241.246094 C 218.800781 241.050781 216.523438 241.15625 213.839844 241.585938 C 213.191406 238.246094 212.054688 235.753906 210.300781 233.816406 C 208.753906 232.097656 206.632812 230.878906 204.246094 230.332031 L 203.351562 222.59375 C 203.203125 221.332031 203.046875 220.019531 203.28125 218.8125 C 203.402344 218.1875 203.617188 217.578125 203.957031 216.976562 C 204.109375 216.671875 204.300781 216.382812 204.523438 216.089844 C 204.933594 216.175781 205.351562 216.246094 205.769531 216.308594 C 209.289062 216.835938 212.84375 216.550781 216.167969 215.472656 C 216.484375 215.371094 216.6875 215.328125 216.816406 215.3125 L 216.816406 215.425781 C 216.761719 216.90625 216.085938 218.328125 215.390625 219.84375 C 214.820312 221.050781 214.234375 222.289062 213.929688 223.648438 C 213.519531 225.410156 214.074219 226.382812 214.605469 226.890625 C 215.140625 227.390625 215.808594 227.570312 216.261719 227.65625 C 216.828125 227.765625 217.398438 227.816406 217.957031 227.816406 C 220.757812 227.816406 223.421875 226.542969 225.523438 225.363281 C 234.570312 220.257812 241.113281 212.695312 243.601562 204.488281 C 244.675781 204.367188 245.726562 204.121094 246.734375 203.78125 C 251.304688 202.230469 255.011719 198.59375 256.660156 194.050781 C 257.472656 191.785156 256.679688 190.625 256.132812 190.132812 " fill-opacity="1" fill-rule="nonzero"/></g><path fill="#ffffff" d="M 165.410156 199.582031 C 164.6875 199.734375 163.964844 199.855469 163.242188 199.953125 C 164.027344 201.757812 164.777344 203.582031 165.488281 205.421875 C 166.167969 207.203125 167.027344 209.085938 167.640625 210.984375 C 169.507812 210.320312 171.214844 209.265625 172.59375 207.933594 C 171.066406 204.910156 169.75 201.765625 168.257812 198.726562 C 167.339844 199.085938 166.390625 199.371094 165.410156 199.582031 Z M 161.523438 200.144531 C 160.070312 200.277344 158.625 200.355469 157.179688 200.472656 C 156.683594 200.511719 155.984375 200.53125 155.257812 200.613281 C 155.746094 202.386719 156.261719 204.15625 156.789062 205.921875 C 157.265625 207.519531 157.992188 209.253906 158.578125 210.996094 C 160.746094 211.789062 163.132812 211.972656 165.414062 211.574219 C 164.886719 209.984375 164.472656 208.328125 163.941406 206.792969 C 163.171875 204.566406 162.351562 202.355469 161.523438 200.144531 Z M 212.167969 247.960938 C 212.054688 246.339844 211.929688 244.753906 211.683594 243.183594 L 211.683594 243.179688 C 211.683594 243.171875 211.679688 243.160156 211.679688 243.152344 L 211.679688 243.140625 C 211.148438 239.671875 210.144531 237.21875 208.527344 235.425781 C 207.484375 234.269531 206.101562 233.398438 204.546875 232.898438 C 204.78125 234.90625 205.011719 236.917969 205.246094 238.929688 C 205.65625 238.234375 206.097656 237.566406 206.589844 236.949219 C 207.066406 236.34375 208.722656 236.390625 208.53125 237.4375 C 208.152344 239.519531 207.015625 241.640625 205.796875 243.621094 C 205.125 244.707031 204.4375 245.746094 203.820312 246.71875 C 203.796875 246.757812 203.769531 246.789062 203.746094 246.828125 C 201.863281 249.828125 199.769531 252.699219 197.488281 255.410156 C 192.878906 260.898438 187.535156 265.765625 181.59375 269.777344 C 179.003906 271.527344 176.273438 273.015625 173.4375 273.824219 C 174.253906 276.207031 174.789062 278.722656 175.253906 281.082031 C 175.921875 284.554688 176.542969 288.359375 176 291.894531 C 175.5625 294.742188 174.230469 297 172.324219 298.648438 C 175.316406 303.1875 176.855469 309.113281 176.273438 314.480469 C 176.679688 314.429688 177.089844 314.375 177.507812 314.3125 C 181.828125 302.929688 189.621094 293.246094 197.898438 284.371094 C 203.210938 278.675781 208.753906 273.214844 213.902344 267.382812 C 213.296875 264.359375 213.09375 261.296875 212.894531 258.472656 C 212.65625 254.964844 212.40625 251.46875 212.167969 247.960938 Z M 181.691406 145.75 C 181.476562 143.414062 178.109375 141.816406 174.160156 142.175781 C 170.21875 142.539062 167.199219 144.726562 167.410156 147.0625 C 167.625 149.394531 170.757812 148.445312 174.707031 148.082031 C 178.648438 147.722656 181.910156 148.085938 181.691406 145.75 Z M 178.914062 165.867188 C 178.914062 161.710938 177.621094 158.339844 176.03125 158.339844 C 174.433594 158.339844 173.148438 161.710938 173.148438 165.867188 C 173.148438 170.027344 174.433594 173.398438 176.03125 173.398438 C 177.621094 173.398438 178.914062 170.027344 178.914062 165.867188 Z M 178.28125 196.757812 C 178.273438 196.71875 178.261719 196.675781 178.253906 196.632812 C 177.804688 195.125 177.203125 193.101562 175.324219 193.003906 C 173.539062 192.910156 171.859375 194.59375 170.453125 195.464844 C 169.957031 195.777344 169.453125 196.054688 168.941406 196.300781 C 168.421875 196.558594 167.898438 196.777344 167.359375 196.96875 C 165.769531 197.546875 164.125 197.886719 162.417969 198.109375 C 161.894531 198.179688 161.347656 198.238281 160.808594 198.28125 C 160.777344 198.285156 160.75 198.285156 160.722656 198.289062 C 158.773438 198.453125 156.714844 198.457031 154.75 198.773438 C 154.246094 198.855469 153.757812 198.957031 153.269531 199.085938 C 153.054688 199.136719 152.84375 199.199219 152.628906 199.265625 C 147.539062 200.898438 149.324219 206.242188 152.15625 209.335938 C 153.425781 210.707031 154.9375 211.742188 156.589844 212.449219 C 157.433594 212.824219 158.3125 213.101562 159.21875 213.304688 C 161.457031 213.804688 163.816406 213.8125 166.085938 213.375 C 166.789062 213.242188 167.476562 213.0625 168.148438 212.847656 C 168.53125 212.722656 168.90625 212.582031 169.285156 212.425781 C 170.855469 211.789062 172.308594 210.90625 173.582031 209.824219 C 174.101562 209.386719 174.585938 208.917969 175.03125 208.414062 C 177.867188 205.304688 179.324219 201.105469 178.28125 196.757812 Z M 146.921875 192.25 C 145.832031 192.300781 146.164062 180.757812 146.148438 179.535156 C 146.109375 175.480469 146.066406 171.429688 146 167.375 C 145.910156 161.121094 145.960938 153.074219 139.792969 149.691406 C 139.488281 149.523438 139.171875 149.371094 138.835938 149.226562 C 138.726562 149.179688 138.597656 149.1875 138.480469 149.230469 C 137.222656 147.871094 134.644531 147.085938 131.757812 147.347656 C 127.816406 147.707031 124.789062 149.894531 125.003906 152.234375 C 125.21875 154.574219 128.355469 153.617188 132.300781 153.257812 C 136.242188 152.898438 139.5 153.257812 139.285156 150.925781 C 139.273438 150.78125 139.25 150.644531 139.210938 150.507812 C 142.328125 153.164062 143.324219 157.132812 143.59375 161.183594 C 143.914062 166.019531 143.667969 170.929688 143.6875 175.78125 C 143.707031 180.460938 143.691406 185.148438 143.746094 189.835938 C 143.773438 192.105469 144.390625 194.882812 147.265625 193.960938 C 148.300781 193.628906 147.96875 192.195312 146.921875 192.25 Z M 139.394531 168.382812 C 139.394531 164.230469 138.105469 160.859375 136.515625 160.859375 C 134.921875 160.859375 133.628906 164.230469 133.628906 168.382812 C 133.628906 172.539062 134.921875 175.910156 136.515625 175.910156 C 138.105469 175.910156 139.394531 172.539062 139.394531 168.382812 Z M 172.628906 271.726562 C 171.726562 271.976562 170.796875 272.144531 169.863281 272.207031 C 167.835938 272.335938 165.753906 271.960938 163.621094 270.863281 C 159.789062 268.902344 157.023438 265.609375 154.738281 261.976562 L 155.152344 244.414062 L 155.152344 244.386719 L 155.347656 236.058594 C 155.363281 235.464844 155.367188 234.914062 155.351562 234.394531 C 169.660156 232.71875 183.792969 226.59375 195.269531 218.15625 C 195.964844 217.644531 195.105469 216.949219 194.488281 217.324219 C 187.730469 221.464844 180.484375 225.023438 173 227.667969 C 166.773438 229.867188 160.40625 231.289062 153.945312 232.519531 C 153.554688 232.480469 153.136719 232.421875 152.6875 232.355469 C 150.472656 232.011719 148.75 231.414062 147.421875 230.523438 C 145.601562 229.3125 144.234375 227.363281 143.023438 225.640625 C 139.320312 220.371094 135.558594 214.910156 131.855469 209.40625 C 129.625 206.097656 127.8125 203.320312 126.492188 200.207031 C 123.34375 192.769531 123.503906 184.308594 123.664062 176.121094 C 123.683594 175.128906 123.703125 174.144531 123.714844 173.164062 L 123.714844 173.144531 C 123.726562 172.382812 123.734375 171.625 123.734375 170.875 C 123.742188 161.523438 122.800781 152.226562 120.921875 143.113281 C 122.316406 136.875 123.660156 130.617188 126.1875 124.71875 C 126.574219 123.824219 127.054688 122.765625 127.628906 121.636719 C 130.582031 122.972656 133.878906 123.605469 137.09375 123.707031 C 137.640625 123.722656 138.617188 123.203125 138.382812 122.492188 C 137.984375 121.3125 137.171875 119.902344 137.003906 118.683594 C 136.882812 117.855469 136.496094 117.054688 137.726562 116.984375 C 138.238281 116.949219 139.40625 117.703125 139.8125 117.882812 C 141.652344 118.722656 144.007812 120.382812 146.101562 120.351562 C 148.039062 120.316406 148.65625 118.617188 149.726562 117.304688 C 151.257812 115.414062 153.292969 114.207031 155.589844 113.636719 C 155.78125 114.804688 155.902344 115.976562 155.945312 117.179688 C 155.980469 118.113281 156.929688 118.335938 157.695312 118.039062 C 160.988281 116.753906 164.234375 115.371094 167.445312 113.875 C 168.757812 113.265625 170.125 112.660156 171.453125 112.003906 C 171.617188 112.214844 171.773438 112.425781 171.933594 112.636719 C 177.804688 120.714844 178.453125 131.199219 181.328125 140.484375 C 186.558594 157.3125 197.425781 173.476562 214.507812 179.863281 C 215.125 188.011719 211.972656 196.195312 204.796875 201.109375 C 202.457031 202.714844 199.867188 203.777344 197.113281 204.421875 C 195.507812 204.796875 193.324219 205.230469 192.625 206.980469 C 191.742188 209.179688 194.085938 210.820312 195.574219 211.945312 C 196.273438 212.46875 196.980469 212.976562 197.699219 213.460938 C 197.785156 213.558594 197.886719 213.632812 198 213.699219 C 198.121094 213.761719 198.230469 213.824219 198.34375 213.882812 C 199.464844 214.609375 200.617188 215.289062 201.804688 215.914062 C 201.375 216.703125 201.085938 217.519531 200.925781 218.363281 C 200.621094 219.933594 200.804688 221.5 200.96875 222.871094 L 201.96875 231.433594 L 201.96875 231.480469 C 201.96875 231.496094 201.972656 231.507812 201.972656 231.523438 C 201.972656 231.53125 201.976562 231.542969 201.976562 231.558594 C 202.40625 235.257812 202.839844 238.957031 203.265625 242.664062 C 202.847656 243.46875 202.421875 244.261719 201.953125 245.015625 C 200.332031 247.632812 198.550781 250.15625 196.628906 252.5625 C 192.609375 257.585938 187.960938 262.105469 182.828125 265.976562 C 179.691406 268.34375 176.273438 270.714844 172.628906 271.726562 Z M 174.726562 195.0625 C 174.050781 195.101562 172.753906 196.347656 172.214844 196.695312 C 171.472656 197.171875 170.714844 197.597656 169.945312 197.972656 C 171.496094 200.574219 173.019531 203.285156 174.171875 206.09375 C 175.953125 203.574219 176.730469 200.441406 175.914062 197.132812 C 175.648438 196.253906 175.382812 195.027344 174.726562 195.0625 Z M 117.957031 146.957031 C 118.128906 145.761719 118.316406 144.558594 118.523438 143.351562 C 118.847656 141.425781 119.226562 139.492188 119.664062 137.570312 C 120.976562 131.6875 122.859375 125.882812 125.675781 120.621094 C 125.804688 120.378906 125.9375 120.132812 126.074219 119.894531 C 126.144531 119.765625 126.21875 119.636719 126.292969 119.507812 C 128.417969 115.769531 131.160156 111.957031 134.691406 109.460938 C 137.445312 107.5 142.109375 106.300781 144.484375 109.472656 C 144.941406 110.082031 144.023438 110.453125 143.542969 110.210938 C 137.1875 106.949219 131.644531 114.183594 128.332031 120.285156 C 130.625 121.085938 132.964844 121.609375 135.457031 121.738281 C 134.515625 119.730469 133.320312 116.976562 134.753906 115.589844 C 136.308594 114.085938 138.683594 115.058594 140.335938 115.792969 C 141.6875 116.394531 144.648438 118.40625 146.050781 118.078125 C 147.136719 117.816406 147.996094 115.921875 148.90625 115.0625 C 150.988281 113.09375 153.59375 111.878906 156.421875 111.46875 C 156.949219 111.386719 157.710938 111.527344 157.835938 112.167969 C 158.054688 113.332031 158.207031 114.484375 158.292969 115.660156 C 160.886719 114.613281 163.445312 113.511719 165.972656 112.320312 C 167.324219 111.691406 168.644531 110.984375 169.976562 110.292969 C 167.691406 107.898438 164.816406 106 161.523438 105.519531 C 156.949219 104.847656 152.375 106.683594 149.953125 110.6875 C 149.691406 111.128906 148.808594 110.914062 149.050781 110.351562 C 152 103.574219 160.761719 101.835938 167.007812 104.886719 C 169.179688 105.941406 171.007812 107.351562 172.5625 109.007812 C 173.058594 109.53125 173.527344 110.082031 173.972656 110.652344 C 177.910156 115.714844 179.878906 122.464844 181.320312 128.5625 C 183.519531 137.773438 185.988281 146.738281 190.757812 155.003906 C 195.214844 162.730469 201.273438 169.550781 208.941406 174.195312 C 210.601562 175.207031 212.328125 176.097656 214.109375 176.867188 C 214.894531 177.203125 215.6875 177.519531 216.488281 177.804688 C 222.066406 179.800781 228.066406 180.542969 233.980469 179.558594 C 236.71875 179.097656 239.398438 178.300781 241.933594 177.167969 C 242.703125 176.828125 243.460938 176.457031 244.207031 176.054688 C 244.773438 175.746094 245.328125 175.425781 245.871094 175.082031 C 248.835938 173.234375 254.371094 169.421875 254.03125 165.363281 C 253.824219 162.855469 249.738281 163.097656 247.847656 162.582031 C 246.4375 162.195312 245.058594 161.710938 243.726562 161.109375 C 243.457031 160.984375 243.191406 160.859375 242.917969 160.726562 C 242.476562 160.496094 242.023438 160.261719 241.578125 160.011719 C 238.691406 158.382812 236.058594 156.296875 233.726562 153.933594 C 227.429688 147.550781 223.496094 139.53125 219.910156 131.421875 C 213.304688 116.515625 204.769531 94.921875 185.4375 93.992188 C 183.925781 93.917969 184.324219 92.09375 185.683594 92.117188 C 207.675781 92.460938 216.1875 116.804688 223.863281 133.316406 C 227.703125 141.585938 232.425781 149.757812 239.738281 155.441406 C 240.777344 156.25 241.867188 156.992188 242.996094 157.648438 C 248.542969 147.480469 249.3125 134.046875 244.640625 122.121094 C 239.691406 109.46875 229.019531 98.171875 214.617188 90.324219 C 205.132812 85.144531 190.4375 79.484375 174.324219 81.914062 C 161.175781 83.894531 149.363281 91.644531 143.496094 102.152344 C 143.484375 102.167969 143.476562 102.1875 143.46875 102.207031 C 143.445312 102.238281 143.429688 102.273438 143.402344 102.300781 C 143.375 102.355469 143.34375 102.398438 143.304688 102.4375 L 143.300781 102.441406 C 143.269531 102.476562 143.242188 102.503906 143.207031 102.527344 C 143.179688 102.554688 143.144531 102.582031 143.113281 102.605469 C 143.078125 102.632812 143.042969 102.65625 143 102.667969 C 142.96875 102.695312 142.929688 102.707031 142.890625 102.726562 C 142.863281 102.742188 142.832031 102.757812 142.796875 102.761719 C 142.753906 102.78125 142.707031 102.789062 142.664062 102.800781 C 142.625 102.8125 142.582031 102.820312 142.539062 102.820312 C 142.46875 102.828125 142.390625 102.828125 142.3125 102.820312 C 142.273438 102.820312 142.238281 102.8125 142.203125 102.804688 C 142.164062 102.800781 142.132812 102.789062 142.097656 102.78125 C 142.050781 102.769531 142.007812 102.75 141.964844 102.734375 C 141.921875 102.71875 141.882812 102.699219 141.839844 102.675781 L 141.835938 102.675781 C 141.800781 102.65625 141.769531 102.636719 141.738281 102.613281 C 141.691406 102.582031 141.648438 102.550781 141.609375 102.511719 C 141.597656 102.503906 141.585938 102.488281 141.570312 102.480469 C 136.402344 97.761719 127.03125 97.699219 120.664062 102.359375 C 117.183594 104.898438 111.136719 111.113281 109.765625 124.144531 C 109.097656 130.566406 109.65625 137.1875 110.199219 143.585938 C 110.378906 145.683594 110.5625 147.847656 110.703125 149.976562 C 111.199219 157.65625 111.265625 167.570312 107.316406 176.167969 C 105.128906 180.90625 104.941406 183.714844 106.726562 184.742188 C 108.601562 185.828125 111.3125 183.769531 112.386719 182.835938 C 115.777344 179.902344 118.777344 176.511719 121.324219 172.765625 C 121.332031 172.132812 121.335938 171.5 121.335938 170.871094 C 121.347656 163.089844 120.675781 155.34375 119.355469 147.714844 C 118.699219 147.96875 117.84375 147.746094 117.957031 146.957031 Z M 154.695312 265.761719 C 153.816406 264.441406 153.042969 263.042969 152.347656 261.597656 C 151.339844 259.542969 150.484375 257.402344 149.667969 255.292969 C 149.421875 254.65625 150.519531 254.382812 150.800781 254.917969 C 151.328125 255.925781 151.867188 256.960938 152.433594 257.992188 L 152.660156 248.265625 C 149.65625 252.425781 146.542969 256.585938 143.359375 260.664062 C 143.351562 260.671875 143.347656 260.683594 143.339844 260.691406 C 138.875 266.414062 134.191406 272.085938 129.371094 277.625 C 132.015625 280.59375 134.574219 283.636719 137.136719 286.671875 C 137.410156 286.992188 137.222656 287.433594 137.039062 287.734375 C 136.15625 289.199219 134.589844 289.558594 132.984375 289.722656 C 131.609375 289.851562 130.390625 289.601562 129.613281 290.875 C 128.773438 292.25 129.644531 294.085938 130.070312 295.507812 C 131.011719 298.6875 131.960938 301.855469 132.902344 305.035156 C 133.4375 306.839844 134.144531 308.71875 134.71875 310.609375 C 137.523438 311.597656 140.355469 312.433594 143.199219 313.113281 C 146 313.773438 148.863281 314.289062 151.785156 314.664062 C 151.933594 312.90625 152.179688 311.183594 152.394531 309.632812 C 152.800781 306.671875 153.332031 303.191406 154.527344 300.207031 C 153.660156 299.472656 152.996094 298.488281 152.636719 297.175781 C 151.78125 294.085938 152.320312 290.429688 152.453125 287.277344 C 152.59375 284.109375 152.488281 280.65625 153.359375 277.585938 C 154.453125 273.769531 157.308594 272.171875 160.601562 271.855469 C 158.164062 270.238281 156.261719 268.136719 154.695312 265.761719 Z M 153.660156 200.890625 C 152.671875 201.167969 151.84375 201.664062 151.660156 202.597656 C 151.167969 205.144531 153.746094 208.066406 155.765625 209.53125 C 155.527344 208.539062 155.3125 207.558594 155.074219 206.660156 C 154.550781 204.742188 154.082031 202.824219 153.660156 200.890625 Z M 254.402344 193.234375 C 253.027344 197.039062 249.789062 200.210938 245.964844 201.507812 C 244.910156 201.867188 243.804688 202.089844 242.671875 202.171875 C 242.640625 202.171875 242.613281 202.175781 242.582031 202.175781 C 242.507812 202.183594 242.4375 202.195312 242.363281 202.214844 C 242.328125 202.226562 242.292969 202.234375 242.253906 202.253906 C 242.222656 202.269531 242.183594 202.28125 242.148438 202.296875 C 242.117188 202.316406 242.082031 202.332031 242.054688 202.355469 C 242.015625 202.375 241.980469 202.398438 241.953125 202.421875 C 241.917969 202.449219 241.875 202.484375 241.84375 202.515625 C 241.828125 202.527344 241.816406 202.542969 241.800781 202.5625 C 241.757812 202.605469 241.710938 202.65625 241.679688 202.710938 C 241.648438 202.746094 241.625 202.789062 241.605469 202.828125 L 241.605469 202.839844 C 241.585938 202.863281 241.574219 202.886719 241.566406 202.914062 C 241.5625 202.917969 241.5625 202.925781 241.5625 202.933594 C 241.535156 202.972656 241.523438 203.015625 241.519531 203.0625 C 241.519531 203.066406 241.519531 203.066406 241.507812 203.074219 C 239.378906 210.960938 233.121094 218.320312 224.339844 223.273438 C 222.183594 224.492188 219.363281 225.820312 216.710938 225.300781 C 216.347656 225.226562 216.261719 225.15625 216.253906 225.148438 C 216.199219 225.089844 216.121094 224.78125 216.257812 224.183594 C 216.515625 223.078125 217.019531 222 217.550781 220.855469 C 218.328125 219.199219 219.140625 217.476562 219.207031 215.496094 C 219.21875 215.023438 219.191406 214.316406 218.722656 213.730469 C 217.710938 212.445312 215.996094 213.007812 215.429688 213.1875 C 211.878906 214.335938 208.03125 214.476562 204.316406 213.589844 C 204.296875 213.585938 204.273438 213.582031 204.261719 213.582031 C 204.253906 213.574219 204.242188 213.574219 204.238281 213.574219 C 202.878906 213.25 201.554688 212.785156 200.316406 212.1875 C 199.148438 211.445312 198.019531 210.652344 196.933594 209.792969 C 196.300781 209.292969 194.667969 208.316406 195.535156 207.15625 C 195.769531 206.851562 196.691406 206.769531 197.027344 206.6875 C 198.261719 206.378906 199.476562 206.113281 200.679688 205.691406 C 205.21875 204.082031 209.261719 201.15625 212.234375 197.371094 C 216.019531 192.550781 217.636719 186.519531 217.003906 180.710938 C 224.109375 182.859375 231.726562 183.050781 238.886719 180.875 C 240.085938 180.511719 241.257812 180.089844 242.414062 179.605469 C 242.492188 179.90625 242.574219 180.214844 242.667969 180.515625 C 244.398438 186.277344 248.710938 190.660156 253.660156 191.675781 L 253.808594 191.703125 C 254.082031 191.753906 254.425781 191.824219 254.527344 191.917969 C 254.636719 192.019531 254.675781 192.488281 254.402344 193.234375 " fill-opacity="1" fill-rule="nonzero"/><g clip-path="url(#id32)"><path fill="#0f0e0c" d="M 139.394531 168.382812 C 139.394531 172.539062 138.105469 175.910156 136.515625 175.910156 C 134.921875 175.910156 133.628906 172.539062 133.628906 168.382812 C 133.628906 164.230469 134.921875 160.859375 136.515625 160.859375 C 138.105469 160.859375 139.394531 164.230469 139.394531 168.382812 Z M 147.265625 193.960938 C 144.390625 194.882812 143.773438 192.105469 143.746094 189.835938 C 143.691406 185.148438 143.707031 180.460938 143.6875 175.78125 C 143.667969 170.929688 143.914062 166.019531 143.59375 161.183594 C 143.324219 157.132812 142.328125 153.164062 139.210938 150.507812 C 139.25 150.644531 139.273438 150.78125 139.285156 150.925781 C 139.5 153.257812 136.242188 152.898438 132.300781 153.257812 C 128.355469 153.617188 125.21875 154.574219 125.003906 152.230469 C 124.789062 149.894531 127.816406 147.707031 131.757812 147.347656 C 134.644531 147.085938 137.222656 147.871094 138.480469 149.230469 C 138.597656 149.1875 138.726562 149.179688 138.835938 149.226562 C 139.171875 149.371094 139.488281 149.523438 139.792969 149.691406 C 145.960938 153.074219 145.910156 161.121094 146 167.375 C 146.066406 171.429688 146.109375 175.480469 146.148438 179.535156 C 146.164062 180.757812 145.832031 192.300781 146.921875 192.25 C 147.96875 192.195312 148.300781 193.628906 147.265625 193.960938 Z M 178.914062 165.867188 C 178.914062 170.027344 177.621094 173.398438 176.03125 173.398438 C 174.433594 173.398438 173.148438 170.027344 173.148438 165.867188 C 173.148438 161.710938 174.433594 158.339844 176.03125 158.339844 C 177.621094 158.339844 178.914062 161.710938 178.914062 165.867188 Z M 174.171875 206.09375 C 173.019531 203.285156 171.496094 200.574219 169.945312 197.972656 C 170.714844 197.597656 171.472656 197.171875 172.214844 196.695312 C 172.753906 196.347656 174.050781 195.101562 174.726562 195.0625 C 175.382812 195.027344 175.648438 196.253906 175.914062 197.132812 C 176.730469 200.441406 175.953125 203.574219 174.171875 206.09375 Z M 167.640625 210.984375 C 167.027344 209.085938 166.167969 207.203125 165.488281 205.421875 C 164.777344 203.582031 164.027344 201.757812 163.242188 199.953125 C 163.964844 199.855469 164.6875 199.734375 165.410156 199.582031 C 166.390625 199.371094 167.339844 199.085938 168.257812 198.726562 C 169.75 201.765625 171.066406 204.910156 172.59375 207.933594 C 171.214844 209.265625 169.507812 210.320312 167.640625 210.984375 Z M 158.578125 210.996094 C 157.992188 209.253906 157.265625 207.519531 156.789062 205.921875 C 156.261719 204.15625 155.746094 202.386719 155.257812 200.613281 C 155.984375 200.53125 156.683594 200.511719 157.179688 200.472656 C 158.625 200.355469 160.070312 200.277344 161.523438 200.144531 C 162.351562 202.355469 163.171875 204.566406 163.941406 206.792969 C 164.472656 208.328125 164.886719 209.984375 165.414062 211.574219 C 163.132812 211.972656 160.746094 211.789062 158.578125 210.996094 Z M 151.664062 202.597656 C 151.84375 201.664062 152.671875 201.167969 153.664062 200.890625 C 154.085938 202.824219 154.554688 204.742188 155.074219 206.660156 C 155.3125 207.558594 155.53125 208.539062 155.769531 209.53125 C 153.75 208.066406 151.171875 205.144531 151.664062 202.597656 Z M 178.253906 196.632812 C 177.804688 195.125 177.203125 193.101562 175.324219 193.003906 C 173.539062 192.910156 171.859375 194.59375 170.453125 195.464844 C 169.957031 195.777344 169.453125 196.054688 168.941406 196.300781 C 168.421875 196.558594 167.898438 196.777344 167.359375 196.96875 C 165.769531 197.546875 164.125 197.886719 162.417969 198.109375 C 161.894531 198.179688 161.347656 198.238281 160.808594 198.28125 C 160.777344 198.285156 160.75 198.285156 160.722656 198.289062 C 158.773438 198.453125 156.714844 198.457031 154.75 198.773438 C 154.246094 198.855469 153.757812 198.957031 153.269531 199.085938 C 153.054688 199.136719 152.84375 199.199219 152.628906 199.265625 C 147.539062 200.898438 149.324219 206.242188 152.15625 209.335938 C 153.425781 210.707031 154.9375 211.742188 156.589844 212.449219 C 157.433594 212.824219 158.3125 213.101562 159.21875 213.304688 C 161.457031 213.804688 163.816406 213.8125 166.085938 213.375 C 166.789062 213.242188 167.476562 213.0625 168.148438 212.847656 C 168.53125 212.722656 168.90625 212.582031 169.285156 212.425781 C 170.855469 211.789062 172.308594 210.90625 173.582031 209.824219 C 174.101562 209.386719 174.585938 208.917969 175.03125 208.414062 C 177.867188 205.304688 179.324219 201.105469 178.28125 196.757812 C 178.273438 196.71875 178.261719 196.675781 178.253906 196.632812 Z M 181.691406 145.75 C 181.910156 148.085938 178.648438 147.722656 174.707031 148.082031 C 170.757812 148.445312 167.625 149.394531 167.410156 147.0625 C 167.199219 144.726562 170.21875 142.539062 174.160156 142.175781 C 178.109375 141.816406 181.476562 143.414062 181.691406 145.75 Z M 254.40625 193.234375 C 253.027344 197.039062 249.792969 200.210938 245.964844 201.507812 C 244.910156 201.867188 243.804688 202.089844 242.671875 202.171875 C 242.644531 202.171875 242.613281 202.175781 242.582031 202.175781 C 242.511719 202.183594 242.4375 202.195312 242.367188 202.214844 C 242.328125 202.226562 242.292969 202.234375 242.257812 202.253906 C 242.222656 202.269531 242.183594 202.28125 242.152344 202.296875 C 242.117188 202.316406 242.082031 202.332031 242.054688 202.355469 C 242.015625 202.375 241.984375 202.398438 241.953125 202.421875 C 241.921875 202.449219 241.878906 202.484375 241.84375 202.515625 C 241.832031 202.527344 241.816406 202.542969 241.800781 202.5625 C 241.757812 202.605469 241.710938 202.65625 241.683594 202.710938 C 241.648438 202.746094 241.625 202.789062 241.605469 202.828125 L 241.605469 202.839844 C 241.585938 202.863281 241.578125 202.886719 241.566406 202.914062 C 241.5625 202.917969 241.5625 202.925781 241.5625 202.933594 C 241.539062 202.972656 241.523438 203.015625 241.519531 203.0625 C 241.519531 203.066406 241.519531 203.066406 241.507812 203.074219 C 239.378906 210.960938 233.121094 218.320312 224.339844 223.273438 C 222.183594 224.492188 219.363281 225.820312 216.714844 225.300781 C 216.351562 225.226562 216.265625 225.15625 216.253906 225.148438 C 216.203125 225.089844 216.121094 224.78125 216.257812 224.183594 C 216.519531 223.078125 217.019531 222 217.550781 220.855469 C 218.332031 219.199219 219.140625 217.476562 219.207031 215.496094 C 219.222656 215.023438 219.191406 214.316406 218.722656 213.730469 C 217.714844 212.445312 215.996094 213.007812 215.433594 213.1875 C 211.882812 214.335938 208.035156 214.476562 204.316406 213.589844 C 204.296875 213.585938 204.273438 213.582031 204.265625 213.582031 C 204.253906 213.574219 204.246094 213.574219 204.238281 213.574219 C 202.882812 213.25 201.554688 212.785156 200.316406 212.1875 C 199.148438 211.445312 198.019531 210.652344 196.933594 209.792969 C 196.300781 209.292969 194.671875 208.316406 195.535156 207.15625 C 195.769531 206.851562 196.695312 206.769531 197.027344 206.6875 C 198.261719 206.378906 199.480469 206.113281 200.679688 205.691406 C 205.222656 204.082031 209.265625 201.15625 212.234375 197.371094 C 216.019531 192.550781 217.636719 186.519531 217.007812 180.710938 C 224.113281 182.859375 231.730469 183.050781 238.886719 180.875 C 240.089844 180.511719 241.261719 180.089844 242.414062 179.605469 C 242.496094 179.90625 242.578125 180.214844 242.667969 180.515625 C 244.398438 186.277344 248.710938 190.660156 253.664062 191.675781 L 253.8125 191.703125 C 254.085938 191.753906 254.429688 191.824219 254.53125 191.917969 C 254.640625 192.019531 254.679688 192.488281 254.40625 193.234375 Z M 203.265625 242.664062 C 202.847656 243.46875 202.421875 244.261719 201.953125 245.015625 C 200.332031 247.632812 198.550781 250.15625 196.628906 252.5625 C 192.609375 257.585938 187.960938 262.105469 182.828125 265.976562 C 179.691406 268.34375 176.273438 270.714844 172.628906 271.726562 C 171.726562 271.976562 170.796875 272.144531 169.863281 272.207031 C 167.835938 272.335938 165.753906 271.960938 163.621094 270.863281 C 159.789062 268.902344 157.023438 265.609375 154.738281 261.976562 L 155.152344 244.414062 L 155.152344 244.386719 L 155.347656 236.058594 C 155.363281 235.464844 155.367188 234.914062 155.351562 234.394531 C 169.660156 232.71875 183.792969 226.59375 195.269531 218.15625 C 195.964844 217.644531 195.105469 216.949219 194.488281 217.324219 C 187.730469 221.464844 180.484375 225.023438 173 227.667969 C 166.773438 229.867188 160.40625 231.289062 153.945312 232.519531 C 153.554688 232.480469 153.136719 232.421875 152.6875 232.355469 C 150.472656 232.011719 148.75 231.414062 147.421875 230.523438 C 145.601562 229.3125 144.234375 227.363281 143.023438 225.640625 C 139.320312 220.367188 135.558594 214.910156 131.855469 209.40625 C 129.625 206.097656 127.8125 203.320312 126.492188 200.207031 C 123.34375 192.769531 123.503906 184.308594 123.664062 176.121094 C 123.683594 175.128906 123.703125 174.144531 123.714844 173.164062 L 123.714844 173.144531 C 123.726562 172.382812 123.734375 171.625 123.734375 170.875 C 123.742188 161.523438 122.800781 152.226562 120.921875 143.113281 C 122.316406 136.875 123.660156 130.617188 126.1875 124.71875 C 126.574219 123.824219 127.054688 122.765625 127.628906 121.636719 C 130.582031 122.972656 133.878906 123.605469 137.09375 123.707031 C 137.640625 123.722656 138.617188 123.203125 138.382812 122.492188 C 137.984375 121.3125 137.171875 119.902344 137.003906 118.683594 C 136.882812 117.855469 136.496094 117.054688 137.726562 116.984375 C 138.238281 116.949219 139.40625 117.703125 139.8125 117.882812 C 141.652344 118.722656 144.007812 120.382812 146.101562 120.351562 C 148.039062 120.316406 148.65625 118.617188 149.726562 117.304688 C 151.257812 115.414062 153.292969 114.207031 155.589844 113.636719 C 155.78125 114.804688 155.902344 115.976562 155.945312 117.179688 C 155.980469 118.113281 156.929688 118.335938 157.695312 118.039062 C 160.988281 116.753906 164.234375 115.371094 167.445312 113.875 C 168.757812 113.265625 170.125 112.660156 171.453125 112.003906 C 171.617188 112.214844 171.773438 112.425781 171.933594 112.636719 C 177.804688 120.714844 178.453125 131.199219 181.328125 140.484375 C 186.558594 157.3125 197.425781 173.476562 214.507812 179.863281 C 215.125 188.011719 211.972656 196.195312 204.796875 201.109375 C 202.457031 202.714844 199.867188 203.777344 197.113281 204.421875 C 195.507812 204.796875 193.324219 205.230469 192.625 206.980469 C 191.742188 209.179688 194.085938 210.820312 195.574219 211.945312 C 196.273438 212.46875 196.980469 212.976562 197.699219 213.460938 C 197.785156 213.558594 197.886719 213.632812 198 213.699219 C 198.121094 213.761719 198.230469 213.824219 198.34375 213.882812 C 199.464844 214.609375 200.617188 215.289062 201.804688 215.914062 C 201.375 216.703125 201.085938 217.519531 200.925781 218.363281 C 200.621094 219.933594 200.804688 221.5 200.96875 222.871094 L 201.96875 231.433594 L 201.96875 231.480469 C 201.96875 231.496094 201.972656 231.507812 201.972656 231.523438 C 201.972656 231.53125 201.976562 231.542969 201.976562 231.558594 C 202.40625 235.257812 202.839844 238.957031 203.265625 242.664062 Z M 203.746094 246.828125 C 203.769531 246.789062 203.792969 246.757812 203.820312 246.71875 C 204.4375 245.746094 205.125 244.707031 205.796875 243.621094 C 207.015625 241.640625 208.152344 239.519531 208.53125 237.4375 C 208.722656 236.390625 207.066406 236.34375 206.589844 236.949219 C 206.097656 237.566406 205.65625 238.234375 205.246094 238.929688 C 205.011719 236.917969 204.78125 234.90625 204.546875 232.898438 C 206.101562 233.398438 207.484375 234.269531 208.527344 235.425781 C 210.144531 237.21875 211.148438 239.671875 211.679688 243.140625 L 211.679688 243.152344 C 211.679688 243.160156 211.683594 243.171875 211.683594 243.179688 L 211.683594 243.183594 C 211.929688 244.753906 212.054688 246.339844 212.167969 247.960938 C 212.40625 251.46875 212.65625 254.964844 212.894531 258.472656 C 213.09375 261.296875 213.296875 264.359375 213.902344 267.382812 C 208.753906 273.214844 203.210938 278.675781 197.898438 284.371094 C 189.621094 293.246094 181.828125 302.929688 177.507812 314.3125 C 177.089844 314.375 176.679688 314.429688 176.273438 314.480469 C 176.855469 309.113281 175.316406 303.1875 172.324219 298.648438 C 174.230469 297 175.5625 294.742188 176 291.894531 C 176.542969 288.355469 175.921875 284.554688 175.253906 281.082031 C 174.789062 278.722656 174.253906 276.207031 173.4375 273.824219 C 176.273438 273.015625 179.003906 271.527344 181.59375 269.777344 C 187.535156 265.765625 192.878906 260.898438 197.488281 255.410156 C 199.769531 252.699219 201.863281 249.828125 203.746094 246.828125 Z M 152.640625 297.175781 C 153 298.488281 153.664062 299.472656 154.527344 300.207031 C 153.332031 303.191406 152.800781 306.671875 152.394531 309.632812 C 152.179688 311.183594 151.9375 312.90625 151.789062 314.664062 C 148.863281 314.289062 146 313.773438 143.199219 313.113281 C 140.359375 312.433594 137.523438 311.597656 134.722656 310.609375 C 134.148438 308.71875 133.4375 306.839844 132.902344 305.035156 C 131.960938 301.855469 131.011719 298.6875 130.070312 295.507812 C 129.644531 294.085938 128.773438 292.25 129.613281 290.875 C 130.390625 289.601562 131.613281 289.851562 132.984375 289.722656 C 134.59375 289.558594 136.15625 289.199219 137.042969 287.734375 C 137.222656 287.433594 137.410156 286.992188 137.136719 286.671875 C 134.574219 283.636719 132.015625 280.59375 129.371094 277.625 C 134.195312 272.085938 138.875 266.414062 143.339844 260.691406 C 143.347656 260.683594 143.351562 260.671875 143.359375 260.664062 C 146.546875 256.585938 149.660156 252.425781 152.664062 248.265625 L 152.433594 257.992188 C 151.867188 256.960938 151.328125 255.925781 150.800781 254.917969 C 150.519531 254.382812 149.421875 254.65625 149.667969 255.292969 C 150.484375 257.402344 151.34375 259.542969 152.347656 261.597656 C 153.046875 263.042969 153.816406 264.441406 154.695312 265.761719 C 156.261719 268.136719 158.164062 270.238281 160.601562 271.855469 C 157.308594 272.171875 154.453125 273.769531 153.363281 277.585938 C 152.492188 280.65625 152.597656 284.109375 152.453125 287.277344 C 152.324219 290.429688 151.78125 294.085938 152.640625 297.175781 Z M 121.324219 172.765625 C 118.777344 176.511719 115.777344 179.902344 112.390625 182.835938 C 111.3125 183.769531 108.605469 185.828125 106.730469 184.742188 C 104.941406 183.714844 105.132812 180.90625 107.316406 176.167969 C 111.265625 167.570312 111.199219 157.65625 110.703125 149.976562 C 110.5625 147.847656 110.378906 145.683594 110.199219 143.585938 C 109.660156 137.1875 109.097656 130.566406 109.765625 124.144531 C 111.136719 111.113281 117.183594 104.898438 120.664062 102.359375 C 127.03125 97.699219 136.402344 97.761719 141.574219 102.480469 C 141.585938 102.488281 141.597656 102.503906 141.609375 102.511719 C 141.648438 102.550781 141.691406 102.582031 141.738281 102.613281 C 141.769531 102.636719 141.804688 102.65625 141.835938 102.675781 L 141.839844 102.675781 C 141.882812 102.699219 141.921875 102.71875 141.964844 102.734375 C 142.007812 102.75 142.050781 102.769531 142.097656 102.78125 C 142.132812 102.789062 142.164062 102.800781 142.207031 102.804688 C 142.238281 102.8125 142.277344 102.820312 142.316406 102.820312 C 142.390625 102.828125 142.46875 102.828125 142.539062 102.820312 C 142.582031 102.820312 142.625 102.8125 142.664062 102.800781 C 142.707031 102.789062 142.753906 102.78125 142.796875 102.761719 C 142.832031 102.757812 142.863281 102.742188 142.894531 102.726562 C 142.933594 102.707031 142.96875 102.695312 143.003906 102.667969 C 143.042969 102.65625 143.082031 102.632812 143.113281 102.605469 C 143.148438 102.582031 143.179688 102.554688 143.210938 102.527344 C 143.242188 102.503906 143.273438 102.476562 143.300781 102.441406 L 143.304688 102.4375 C 143.34375 102.398438 143.378906 102.355469 143.40625 102.300781 C 143.429688 102.273438 143.449219 102.238281 143.46875 102.207031 C 143.476562 102.1875 143.488281 102.167969 143.496094 102.152344 C 149.367188 91.644531 161.175781 83.894531 174.324219 81.914062 C 190.441406 79.484375 205.132812 85.144531 214.617188 90.324219 C 229.019531 98.171875 239.691406 109.46875 244.644531 122.121094 C 249.3125 134.046875 248.542969 147.480469 242.996094 157.648438 C 241.867188 156.992188 240.777344 156.25 239.738281 155.441406 C 232.429688 149.757812 227.707031 141.585938 223.863281 133.316406 C 216.1875 116.804688 207.675781 92.460938 185.683594 92.117188 C 184.324219 92.09375 183.929688 93.917969 185.441406 93.992188 C 204.769531 94.921875 213.308594 116.515625 219.910156 131.421875 C 223.5 139.53125 227.433594 147.550781 233.730469 153.933594 C 236.058594 156.296875 238.691406 158.382812 241.582031 160.011719 C 242.027344 160.261719 242.476562 160.496094 242.921875 160.726562 C 243.195312 160.859375 243.457031 160.984375 243.730469 161.109375 C 245.058594 161.710938 246.4375 162.195312 247.851562 162.582031 C 249.738281 163.097656 253.824219 162.855469 254.03125 165.363281 C 254.371094 169.421875 248.835938 173.234375 245.875 175.082031 C 245.328125 175.425781 244.773438 175.746094 244.207031 176.054688 C 243.460938 176.457031 242.707031 176.828125 241.9375 177.167969 C 239.398438 178.300781 236.71875 179.097656 233.984375 179.558594 C 228.070312 180.542969 222.070312 179.800781 216.488281 177.804688 C 215.691406 177.519531 214.894531 177.203125 214.109375 176.867188 C 212.332031 176.097656 210.605469 175.207031 208.945312 174.195312 C 201.273438 169.550781 195.214844 162.730469 190.761719 155.003906 C 185.988281 146.738281 183.519531 137.773438 181.320312 128.5625 C 179.878906 122.464844 177.914062 115.714844 173.976562 110.652344 C 173.53125 110.082031 173.0625 109.53125 172.5625 109.007812 C 171.007812 107.351562 169.179688 105.941406 167.007812 104.886719 C 160.765625 101.835938 152.003906 103.574219 149.050781 110.351562 C 148.8125 110.914062 149.691406 111.128906 149.953125 110.6875 C 152.375 106.683594 156.949219 104.847656 161.523438 105.519531 C 164.816406 106 167.691406 107.898438 169.980469 110.292969 C 168.644531 110.984375 167.324219 111.691406 165.976562 112.320312 C 163.449219 113.511719 160.886719 114.613281 158.296875 115.660156 C 158.207031 114.484375 158.054688 113.332031 157.835938 112.167969 C 157.710938 111.527344 156.949219 111.386719 156.425781 111.46875 C 153.597656 111.878906 150.988281 113.09375 148.90625 115.0625 C 147.996094 115.921875 147.136719 117.816406 146.050781 118.078125 C 144.648438 118.40625 141.6875 116.394531 140.339844 115.792969 C 138.683594 115.058594 136.308594 114.085938 134.753906 115.589844 C 133.324219 116.976562 134.515625 119.730469 135.457031 121.738281 C 132.964844 121.609375 130.625 121.085938 128.332031 120.285156 C 131.644531 114.183594 137.191406 106.949219 143.546875 110.210938 C 144.023438 110.453125 144.941406 110.082031 144.488281 109.472656 C 142.109375 106.300781 137.449219 107.5 134.695312 109.460938 C 131.160156 111.957031 128.417969 115.769531 126.296875 119.507812 C 126.21875 119.636719 126.144531 119.765625 126.074219 119.894531 C 125.941406 120.132812 125.808594 120.378906 125.675781 120.621094 C 122.859375 125.882812 120.980469 131.6875 119.664062 137.570312 C 119.226562 139.492188 118.847656 141.425781 118.523438 143.351562 C 118.320312 144.558594 118.132812 145.761719 117.960938 146.957031 C 117.84375 147.746094 118.703125 147.96875 119.359375 147.714844 C 120.675781 155.34375 121.347656 163.089844 121.339844 170.867188 C 121.339844 171.5 121.332031 172.132812 121.324219 172.765625 Z M 256.132812 190.132812 C 255.542969 189.597656 254.84375 189.460938 254.289062 189.347656 L 254.144531 189.324219 C 250.058594 188.484375 246.445312 184.757812 244.964844 179.824219 C 244.84375 179.414062 244.730469 178.996094 244.640625 178.578125 C 246.410156 177.691406 248.101562 176.648438 249.699219 175.464844 C 252.597656 173.3125 255.953125 170.410156 256.820312 166.722656 C 257.75 162.757812 255.003906 161.265625 251.550781 160.738281 C 249.304688 160.390625 247.152344 159.710938 245.125 158.757812 C 250.976562 147.96875 251.800781 133.800781 246.878906 121.25 C 241.710938 108.066406 230.667969 96.339844 215.773438 88.21875 C 205.960938 82.867188 190.75 77.011719 173.976562 79.542969 C 160.589844 81.558594 148.519531 89.265625 142.101562 99.800781 C 135.914062 95.175781 126.191406 95.351562 119.253906 100.417969 C 115.449219 103.195312 108.84375 109.941406 107.386719 123.898438 C 106.6875 130.546875 107.261719 137.277344 107.8125 143.792969 C 107.988281 145.875 108.171875 148.023438 108.3125 150.136719 C 108.792969 157.53125 108.867188 167.0625 105.136719 175.164062 C 104.109375 177.398438 100.980469 184.195312 105.53125 186.820312 C 106.261719 187.242188 107.066406 187.453125 107.921875 187.453125 C 109.75 187.453125 111.824219 186.503906 113.960938 184.652344 C 116.632812 182.335938 119.078125 179.753906 121.253906 176.945312 C 121.09375 185.109375 121.046875 193.507812 124.28125 201.140625 C 125.804688 204.71875 128.058594 208.0625 129.867188 210.746094 C 133.585938 216.265625 137.347656 221.742188 141.0625 227.019531 C 142.398438 228.910156 143.902344 231.054688 146.097656 232.519531 C 147.269531 233.304688 148.660156 233.902344 150.316406 234.320312 C 150.421875 234.585938 150.695312 234.785156 151.152344 234.757812 C 151.476562 234.742188 151.804688 234.722656 152.128906 234.699219 C 152.195312 234.707031 152.253906 234.714844 152.324219 234.726562 C 152.539062 234.757812 152.75 234.792969 152.957031 234.816406 C 152.964844 235.191406 152.960938 235.582031 152.957031 236 L 152.765625 243.992188 C 149.183594 249.058594 145.398438 254.144531 141.519531 259.125 C 138.761719 261.539062 135.488281 263.792969 131.535156 266.011719 C 128.257812 267.847656 124.792969 269.515625 121.445312 271.128906 C 117.449219 273.050781 113.316406 275.035156 109.414062 277.351562 C 106.601562 279.015625 103.472656 281.148438 101.597656 284.289062 C 100.382812 286.332031 99.710938 288.6875 99.554688 291.492188 C 99.554688 291.496094 99.554688 291.503906 99.554688 291.507812 C 99.546875 291.601562 99.554688 291.699219 99.578125 291.800781 C 99.578125 291.832031 99.589844 291.871094 99.601562 291.90625 C 99.613281 291.9375 99.621094 291.976562 99.640625 292.011719 C 99.648438 292.042969 99.667969 292.082031 99.6875 292.117188 C 99.722656 292.175781 99.761719 292.238281 99.808594 292.296875 C 99.851562 292.359375 99.902344 292.414062 99.964844 292.464844 C 110.199219 301.367188 120.9375 307.964844 132.023438 312.167969 C 133.160156 312.605469 134.296875 313.011719 135.441406 313.390625 C 137.832031 314.183594 140.234375 314.875 142.652344 315.445312 C 145.582031 316.140625 148.589844 316.679688 151.65625 317.050781 C 152.621094 317.175781 153.59375 317.28125 154.574219 317.367188 C 157.359375 317.621094 160.191406 317.746094 163.074219 317.746094 C 166.246094 317.746094 169.476562 317.59375 172.742188 317.285156 C 173.773438 317.191406 174.804688 317.082031 175.84375 316.953125 C 176.097656 316.921875 176.351562 316.890625 176.609375 316.855469 C 177.488281 316.746094 178.359375 316.621094 179.242188 316.488281 C 188.210938 315.121094 197.453125 312.648438 206.800781 309.082031 C 211.882812 307.140625 216.878906 304.9375 221.730469 302.574219 C 222.726562 302.09375 223.722656 301.597656 224.707031 301.101562 C 234.507812 296.171875 243.6875 290.695312 251.878906 285.617188 C 251.898438 285.613281 251.914062 285.601562 251.933594 285.589844 C 251.953125 285.574219 251.976562 285.5625 251.996094 285.546875 C 252.003906 285.542969 252.011719 285.539062 252.019531 285.527344 C 252.058594 285.503906 252.089844 285.472656 252.132812 285.4375 C 252.167969 285.410156 252.195312 285.375 252.21875 285.339844 C 252.277344 285.277344 252.320312 285.210938 252.359375 285.140625 C 252.378906 285.113281 252.394531 285.078125 252.40625 285.050781 C 252.417969 285.027344 252.425781 285 252.4375 284.972656 C 252.484375 284.84375 252.507812 284.703125 252.507812 284.566406 C 252.507812 284.503906 252.503906 284.445312 252.492188 284.382812 C 252.484375 284.328125 252.46875 284.269531 252.453125 284.210938 C 252.449219 284.199219 252.441406 284.183594 252.4375 284.167969 C 252.425781 284.136719 252.410156 284.097656 252.394531 284.0625 C 252.378906 284.023438 252.359375 283.992188 252.335938 283.957031 C 252.335938 283.953125 252.332031 283.945312 252.332031 283.9375 C 252.320312 283.933594 252.316406 283.925781 252.3125 283.917969 C 252.300781 283.894531 252.289062 283.875 252.273438 283.855469 C 252.261719 283.84375 252.25 283.824219 252.234375 283.808594 C 252.023438 283.527344 251.8125 283.25 251.585938 282.980469 C 250.175781 281.28125 248.464844 279.855469 246.589844 278.832031 C 245.707031 278.351562 244.792969 277.949219 243.902344 277.5625 C 242.085938 276.757812 240.367188 276 239.148438 274.699219 C 237.382812 272.8125 236.855469 270.054688 236.390625 266.90625 L 234.667969 255.335938 C 234.34375 253.0625 233.960938 250.480469 232.722656 248.195312 C 230.621094 244.34375 226.21875 241.742188 220.9375 241.246094 C 218.800781 241.050781 216.523438 241.15625 213.839844 241.585938 C 213.195312 238.246094 212.054688 235.753906 210.304688 233.816406 C 208.753906 232.097656 206.632812 230.878906 204.246094 230.332031 L 203.351562 222.59375 C 203.203125 221.332031 203.050781 220.019531 203.285156 218.8125 C 203.40625 218.1875 203.621094 217.578125 203.960938 216.976562 C 204.113281 216.671875 204.304688 216.382812 204.523438 216.089844 C 204.9375 216.175781 205.351562 216.246094 205.773438 216.308594 C 209.289062 216.835938 212.84375 216.550781 216.171875 215.472656 C 216.488281 215.371094 216.6875 215.328125 216.816406 215.3125 L 216.816406 215.425781 C 216.765625 216.90625 216.089844 218.328125 215.390625 219.84375 C 214.820312 221.050781 214.238281 222.289062 213.929688 223.648438 C 213.519531 225.410156 214.074219 226.382812 214.605469 226.890625 C 215.140625 227.390625 215.8125 227.570312 216.261719 227.65625 C 216.832031 227.765625 217.402344 227.816406 217.960938 227.816406 C 220.757812 227.816406 223.425781 226.542969 225.523438 225.363281 C 234.574219 220.257812 241.113281 212.695312 243.601562 204.488281 C 244.679688 204.367188 245.726562 204.121094 246.738281 203.78125 C 251.304688 202.230469 255.015625 198.59375 256.660156 194.050781 C 257.472656 191.785156 256.679688 190.625 256.132812 190.132812 " fill-opacity="1" fill-rule="nonzero"/></g></svg>